<?xml version="1.0" encoding="utf-8"?>
<!-- Generator: Adobe Illustrator 14.0.0, SVG Export Plug-In . SVG Version: 6.00 Build 43363)  -->
<!DOCTYPE svg PUBLIC "-//W3C//DTD SVG 1.1//EN" "http://www.w3.org/Graphics/SVG/1.1/DTD/svg11.dtd">
<svg version="1.1" id="Layer_1" xmlns="http://www.w3.org/2000/svg" xmlns:xlink="http://www.w3.org/1999/xlink" x="0px" y="0px"
	 width="640px" height="480px" viewBox="0 0 640 480" enable-background="new 0 0 640 480" xml:space="preserve">
<polygon fill="#FA7429" points="511.699,219.37 487.109,209.607 487.109,116.697 511.699,126.459 "/>
<path fill="#BCBCBC" d="M383.477,303.136c0.568,3.065,3.066,5.173,5.579,4.709l0,0c2.513-0.468,4.089-3.331,3.521-6.398
	l-18.128-97.742c-0.567-3.066-3.065-5.173-5.579-4.708l0,0c-2.514,0.467-4.089,3.331-3.521,6.396L383.477,303.136z"/>
<path fill="#FFFEFD" d="M438.935,195.076c-0.02-2.016,2.591-3.676,5.829-3.708l0,0c3.24-0.032,5.882,1.578,5.901,3.595l0.627,64.283
	c0.021,2.017-2.59,3.677-5.829,3.709l0,0c-3.239,0.031-5.881-1.578-5.901-3.594L438.935,195.076z"/>
<path fill="#FFFEFD" d="M377.477,304.136c0.568,3.065,3.611,5.072,6.796,4.483l0,0c3.186-0.593,5.307-3.557,4.737-6.624
	l-18.127-97.742c-0.568-3.066-3.611-5.072-6.797-4.482l0,0c-3.186,0.591-5.306,3.556-4.738,6.622L377.477,304.136z"/>
<path fill="#FFFEFD" d="M294.312,261.559c-0.477,1.959,1.688,4.168,4.835,4.935l0,0c3.148,0.767,6.086-0.201,6.563-2.161
	l15.205-62.463c0.478-1.959-1.688-4.168-4.835-4.935l0,0c-3.147-0.766-6.086,0.202-6.563,2.161L294.312,261.559z"/>
<path fill="#BCBCBC" d="M444.402,204.111c0.014-1.674,1.428-3.753,3.156-4.645l0,0c1.73-0.891,3.12-0.256,3.105,1.418l-0.455,53.365
	c-0.014,1.672-1.428,3.752-3.156,4.643l0,0c-1.73,0.893-3.12,0.257-3.105-1.416L444.402,204.111z"/>
<path fill="#BCBCBC" d="M299.511,271.575c-0.477,1.959,0.065,3.772,1.209,4.054l0,0c1.146,0.277,2.461-1.084,2.938-3.045
	l15.205-62.462c0.478-1.959-0.064-3.773-1.21-4.052l0,0c-1.145-0.279-2.461,1.084-2.938,3.043L299.511,271.575z"/>
<rect x="259.123" y="116.698" fill="#FD9714" width="228.282" height="92.908"/>
<rect x="263.123" y="122.005" fill="none" width="228.282" height="65.467"/>
<text transform="matrix(1 0 0 1 263.1226 153.5889)" fill="#FCFCFC" font-family="'Oduda-Bold'" font-size="48">Addendum</text>
<g>
	<ellipse fill="#C94814" cx="287.583" cy="181.902" rx="24.46" ry="23.021"/>
</g>
<ellipse fill="#F9F8F7" cx="286.203" cy="180.119" rx="20.841" ry="19.805"/>
<line fill="none" x1="286.203" y1="260.803" x2="286.203" y2="298.135"/>
<line fill="none" x1="312.043" y1="280.469" x2="331.812" y2="280.469"/>
<line fill="none" x1="230.479" y1="243.469" x2="250.25" y2="243.469"/>
<polyline fill="#333333" points="275.581,189.662 276.051,167.833 302.477,179.323 "/>
<rect x="322.043" y="172.914" fill="#333333" width="149.437" height="17.113"/>
<path fill="#EAE9E8" d="M417.812,181.119c0,6.075-4.925,11-11,11h-37.229c-6.075,0-11-4.925-11-11l0,0c0-6.075,4.925-11,11-11
	h37.229C412.888,170.119,417.812,175.043,417.812,181.119L417.812,181.119z"/>
<path fill="#FD9714" d="M331.812,304.803c0,6.627-5.373,12-12,12h-28.5c-6.627,0-12-5.373-12-12v-38.608c0-6.627,5.373-12,12-12
	h28.5c6.627,0,12,5.373,12,12V304.803z"/>
<path fill="#FD9714" d="M445.113,322.303c0,6.627-5.373,12-12,12h-53.801c-6.627,0-12-5.373-12-12v-15.5c0-6.627,5.373-12,12-12
	h53.801c6.627,0,12,5.373,12,12V322.303z"/>
<path fill="#FD9714" d="M456.312,275.803c0,6.627-5.373,12-12,12h-14.5c-6.627,0-12-5.373-12-12v-17.5c0-6.627,5.373-12,12-12h14.5
	c6.627,0,12,5.373,12,12V275.803z"/>
</svg>
